<?xml version="1.0" encoding="utf-8"?>
<!-- Generator: Adobe Illustrator 22.1.0, SVG Export Plug-In . SVG Version: 6.00 Build 0)  -->
<svg version="1.1" id="Layer_1" xmlns="http://www.w3.org/2000/svg" xmlns:xlink="http://www.w3.org/1999/xlink" x="0px" y="0px"
	 viewBox="0 0 467.2 623.8" style="enable-background:new 0 0 467.2 623.8;" xml:space="preserve">
<style type="text/css">
	.st0{fill:url(#SVGID_1_);}
</style>
<path d="M70.5,311.6c-2.4,13.8,3,11.4,10.8,10.4c93,0.2,186.1,0.3,279.1,0.4c11.4,0,26.7,4,33.4-1.8c7.9-6.8,2.4-22.5,2.5-34.3
	c0.3-22.3-10.5-32.6-33.2-32.7c-22.5-0.1-45,0-67.5-0.1c-23.5-0.1-33.2-10-34.3-33.7c-0.9-21.7,3.8-42.7,7.7-63.8
	c4.3-23,10.9-45.8,7.9-69.6c-2.9-23.3-21.5-43-41.5-44.9c-18.6-1.8-36.5,12.3-44.6,35.4c-2.7,7.6-4.2,15.5-3.1,23.5
	c1.9,14.3,4,28.6,6.4,42.9c4.4,25.5,11.4,50.7,10.2,77c-1,22.9-11.1,33-33.3,33.2c-23.5,0.1-47-0.1-70.6,0.1
	c-12.7,0.1-23.7,3.6-28.5,17.2C66.5,284.4,72.8,298.7,70.5,311.6L70.5,311.6z M232.3,59c11.8-0.3,22.8,14.5,22.6,30.7
	c-0.1,15.2-10.7,29.8-21.8,30.2c-11.5,0.4-22.7-14.9-22.5-30.8C210.8,73.4,221,59.2,232.3,59L232.3,59z M69.1,358.8
	c-0.2-10.3,3.6-12.7,13-12.3c10.7,0.4,21.4,0.4,32.1,0.4l53.7-0.7l69.9,0.1l62.5,0.1l49.8,0.6c12.3-0.3,24.5,0.7,36.8-0.1
	c6.4-0.4,9,2.1,9,8.5c-0.1,38,0,75.9,0.2,113.9c0,4.4-1.3,7.8-5,10.2c-13.8,8.8-26.7,19.2-41,27.3l-49.8,34.3l-62.5,41.3l-69.9-40.1
	l-53.7-35.4c-14.8-9.2-28.4-20.3-42.1-31c-4-3.1-2.8-7.2-2.8-10.9C69.2,429.5,69.6,394.2,69.1,358.8L69.1,358.8z"/>
<linearGradient id="SVGID_1_" gradientUnits="userSpaceOnUse" x1="148.9914" y1="437.7307" x2="318.2086" y2="437.7307">
	<stop  offset="0" style="stop-color:#C4992F"/>
	<stop  offset="0.12" style="stop-color:#B1872D"/>
	<stop  offset="0.31" style="stop-color:#F9F396"/>
	<stop  offset="0.41" style="stop-color:#E6D16E"/>
	<stop  offset="0.56" style="stop-color:#C4992F"/>
	<stop  offset="0.59" style="stop-color:#CEAB41"/>
	<stop  offset="0.65" style="stop-color:#E1C966"/>
	<stop  offset="0.7" style="stop-color:#EFE07E"/>
	<stop  offset="0.75" style="stop-color:#F7EE8E"/>
	<stop  offset="0.79" style="stop-color:#F9F396"/>
	<stop  offset="0.88" style="stop-color:#B1872D"/>
	<stop  offset="1" style="stop-color:#C4992F"/>
</linearGradient>
<path class="st0" d="M317.6,506.5l-9.6,12.9c-0.9,1-2.2,1.6-3.5,1.5c-15.6-1-40.4-11.1-40.4-11.1l-24-7.9c-1.7-0.6-3.5-1.3-5.2-2.2
	c-0.7-0.4-1.7-0.4-2.4,0c-1.7,0.8-3.4,1.5-5.2,2.2l-24.1,7.9c0,0-24.9,10.1-40.4,11.1c-1.3,0.1-2.6-0.4-3.5-1.5l-9.6-12.9
	c-1.5-1.9-0.1-4.5,2.5-4.9c9.5-1.3,18.4-3.3,21.9-7.1l38.4-39.9c1-1,1.1-2.4,0.4-3.5c-0.1-0.2-0.3-0.3-0.4-0.5L175,411.4
	c-3.5-3.7-12.9-5.8-22.2-7c-2.7-0.3-4.1-3-2.6-4.9l9.6-12.9c0.9-1,2.2-1.6,3.5-1.5l62.4,21.9c-0.1-0.4-0.1-0.8-0.1-1.2v-3.2
	c0-2.7-1.4-5.2-3.6-6.6l-29.3-19.1c-4.2-2.5-6.3-8-7.3-13.5c-0.5-3,1-6,3.8-7.3l1.6-0.7c3.4-1.6,7.3-0.1,8.9,3.3
	c0.1,0.2,0.2,0.3,0.2,0.5c0.3,0.8,0.6,1.6,1,2.3c1,1.7,2.7,3,4.6,3.3l25.9,4.6c0.4,0.1,1,0.1,1.4,0.1h1.6c0.4,0,1,0,1.4-0.1
	l25.9-4.6c1.9-0.3,3.7-1.6,4.6-3.3c0.4-0.7,0.8-1.5,1-2.3c1.3-3.5,5.2-5.2,8.7-4l0.4,0.2l1.6,0.7c2.8,1.3,4.3,4.3,3.8,7.3
	c-1,5.5-3.1,11-7.3,13.5l-29.3,19.1c-2.3,1.5-3.6,3.9-3.6,6.6v3.3c0,0.4,0,0.8-0.1,1.2l62.4-21.9c1.3-0.1,2.6,0.4,3.5,1.5l9.6,12.9
	c1.5,2,0.1,4.5-2.6,4.9c-9.3,1.2-18.7,3.3-22.2,7l-37.4,39.3c-0.2,0.2-0.3,0.3-0.4,0.5c-0.7,1.1-0.5,2.5,0.4,3.5l38.4,39.9
	c3.6,3.7,12.5,5.7,21.9,7.1C317.7,502,319,504.6,317.6,506.5z"/>
</svg>
